{"accessors" : [{"bufferView" : 0, "byteOffset" : 0, "componentType" : 5123, "count" : 3384, "type" : "SCALAR", "max" : [3149], "min" : [0]}, {"bufferView" : 1, "byteOffset" : 0, "componentType" : 5126, "count" : 3150, "type" : "VEC3", "max" : [0.48751115798950195, 13.682632446289062, 1.0693992376327515], "min" : [-0.10695409774780273, 0.024920225143432617, -0.9826615452766418], "name" : "POSITION"}, {"bufferView" : 1, "byteOffset" : 12, "componentType" : 5126, "count" : 3150, "type" : "VEC3", "max" : [1.000003695487976, 1.0000044107437134, 0.9999538660049438], "min" : [-1.0000038146972656, -1.0000044107437134, -0.9992820620536804], "name" : "NORMAL"}, {"bufferView" : 1, "byteOffset" : 24, "componentType" : 5126, "count" : 3150, "type" : "VEC2", "max" : [0.7790184617042542, 1], "min" : [0, 0.245563805103302], "name" : "TEXCOORD_0"}, {"bufferView" : 0, "byteOffset" : 6768, "componentType" : 5123, "count" : 1815, "type" : "SCALAR", "max" : [1634], "min" : [0]}, {"bufferView" : 2, "byteOffset" : 0, "componentType" : 5126, "count" : 1635, "type" : "VEC3", "max" : [0.980611264705658, 12.193587303161621, 0.9120702743530273], "min" : [0.13091859221458435, -0.000447330588940531, -0.9948031902313232], "name" : "POSITION"}, {"bufferView" : 2, "byteOffset" : 12, "componentType" : 5126, "count" : 1635, "type" : "VEC3", "max" : [1.0000044107437134, 1.0000044107437134, 1.0000044107437134], "min" : [-1.0000044107437134, -1.0000044107437134, -1.0000044107437134], "name" : "NORMAL"}, {"bufferView" : 2, "byteOffset" : 24, "componentType" : 5126, "count" : 1635, "type" : "VEC2", "max" : [1.0000001192092896, 1], "min" : [0, -1.1920928955078125E-07], "name" : "TEXCOORD_0"}, {"bufferView" : 0, "byteOffset" : 10400, "componentType" : 5123, "count" : 738, "type" : "SCALAR", "max" : [670], "min" : [0]}, {"bufferView" : 3, "byteOffset" : 0, "componentType" : 5126, "count" : 671, "type" : "VEC3", "max" : [0.4860067367553711, 10.474894523620605, -0.6588346362113953], "min" : [0.08851173520088196, 8.052079200744629, -0.7555255889892578], "name" : "POSITION"}, {"bufferView" : 3, "byteOffset" : 12, "componentType" : 5126, "count" : 671, "type" : "VEC3", "max" : [0.9999760985374451, 0.4252653419971466, 1.000003457069397], "min" : [-0.9999712109565735, -0.6314623951911926, -1.000002145767212], "name" : "NORMAL"}, {"bufferView" : 3, "byteOffset" : 24, "componentType" : 5126, "count" : 671, "type" : "VEC2", "max" : [0.8343091011047363, 1], "min" : [0, 0.37499988079071045], "name" : "TEXCOORD_0"}, {"bufferView" : 0, "byteOffset" : 11876, "componentType" : 5123, "count" : 480, "type" : "SCALAR", "max" : [415], "min" : [0]}, {"bufferView" : 4, "byteOffset" : 0, "componentType" : 5126, "count" : 416, "type" : "VEC3", "max" : [0.7192668914794922, 3.00651216506958, 0.113995760679245], "min" : [0.6134934425354004, 2.7521090507507324, 0.009840104728937149], "name" : "POSITION"}, {"bufferView" : 4, "byteOffset" : 12, "componentType" : 5126, "count" : 416, "type" : "VEC3", "max" : [0.9941010475158691, 1.0000044107437134, 0.986379086971283], "min" : [-0.9941006898880005, -1.0000044107437134, -0.9863791465759277], "name" : "NORMAL"}, {"bufferView" : 4, "byteOffset" : 24, "componentType" : 5126, "count" : 416, "type" : "VEC2", "max" : [1, 0.9900000095367432], "min" : [-8.940696716308594E-08, 0], "name" : "TEXCOORD_0"}, {"bufferView" : 0, "byteOffset" : 12836, "componentType" : 5123, "count" : 3543, "type" : "SCALAR", "max" : [3381], "min" : [0]}, {"bufferView" : 5, "byteOffset" : 0, "componentType" : 5126, "count" : 3382, "type" : "VEC3", "max" : [1.094480276107788, 12.558441162109375, 0.8335364460945129], "min" : [0.139108806848526, 0.978160560131073, -0.889232337474823], "name" : "POSITION"}, {"bufferView" : 5, "byteOffset" : 12, "componentType" : 5126, "count" : 3382, "type" : "VEC3", "max" : [0.9993993043899536, 0.9999750852584839, 0.9999793171882629], "min" : [-0.9996768832206726, -0.999972939491272, -0.9990557432174683], "name" : "NORMAL"}, {"bufferView" : 5, "byteOffset" : 24, "componentType" : 5126, "count" : 3382, "type" : "VEC2", "max" : [1.0000121593475342, 1], "min" : [-1.564621925354004E-07, -1.1920928955078125E-07], "name" : "TEXCOORD_0"}, {"bufferView" : 0, "byteOffset" : 19924, "componentType" : 5123, "count" : 2442, "type" : "SCALAR", "max" : [2232], "min" : [0]}, {"bufferView" : 6, "byteOffset" : 0, "componentType" : 5126, "count" : 2233, "type" : "VEC3", "max" : [0.8750876188278198, 4.897541522979736, 0.8192439079284668], "min" : [0.26088446378707886, 0.978160560131073, -0.8672277927398682], "name" : "POSITION"}, {"bufferView" : 6, "byteOffset" : 12, "componentType" : 5126, "count" : 2233, "type" : "VEC3", "max" : [0.9998820424079895, 0.8258508443832397, 0.998656690120697], "min" : [-0.9998877644538879, -0.8490414619445801, -0.9996857643127441], "name" : "NORMAL"}, {"bufferView" : 6, "byteOffset" : 24, "componentType" : 5126, "count" : 2233, "type" : "VEC2", "max" : [1.0000001192092896, 1], "min" : [0, -1.1920928955078125E-07], "name" : "TEXCOORD_0"}, {"bufferView" : 0, "byteOffset" : 24808, "componentType" : 5123, "count" : 960, "type" : "SCALAR", "max" : [899], "min" : [0]}, {"bufferView" : 7, "byteOffset" : 0, "componentType" : 5126, "count" : 900, "type" : "VEC3", "max" : [0.8853002786636353, 4.666143894195557, 0.772652268409729], "min" : [0.34291374683380127, 0.8849972486495972, -0.7253789901733398], "name" : "POSITION"}, {"bufferView" : 7, "byteOffset" : 12, "componentType" : 5126, "count" : 900, "type" : "VEC3", "max" : [0.9999132752418518, 0.6911008358001709, 0.9981128573417664], "min" : [-0.9997842311859131, -0.6910732984542847, -0.9992991089820862], "name" : "NORMAL"}, {"bufferView" : 7, "byteOffset" : 24, "componentType" : 5126, "count" : 900, "type" : "VEC2", "max" : [0.8750001192092896, 0.9897269010543823], "min" : [0.125, -1.1920928955078125E-07], "name" : "TEXCOORD_0"}, {"bufferView" : 0, "byteOffset" : 26728, "componentType" : 5123, "count" : 129, "type" : "SCALAR", "max" : [127], "min" : [0]}, {"bufferView" : 8, "byteOffset" : 0, "componentType" : 5126, "count" : 128, "type" : "VEC3", "max" : [0.7492986917495728, 3.7558658123016357, -0.2116086333990097], "min" : [0.6128023862838745, 2.9014010429382324, -0.3506721556186676], "name" : "POSITION"}, {"bufferView" : 8, "byteOffset" : 12, "componentType" : 5126, "count" : 128, "type" : "VEC3", "max" : [0.8229274153709412, 0.02077426016330719, 0.8830617070198059], "min" : [-0.8274217844009399, -0.018881507217884064, -0.8991712331771851], "name" : "NORMAL"}, {"bufferView" : 8, "byteOffset" : 24, "componentType" : 5126, "count" : 128, "type" : "VEC2", "max" : [0.9231692552566528, 0.9263740181922913], "min" : [0.07796257734298706, 0.575891375541687], "name" : "TEXCOORD_0"}], "asset" : {"generator" : "Aspose.3D 23.4.0", "version" : "2.0"}, "buffers" : [{"uri" : "data:application/octet-stream;base64,", "byteLength" : 458736}], "bufferViews" : [{"buffer" : 0, "byteOffset" : 0, "byteLength" : 26988, "target" : 34963}, {"buffer" : 0, "byteOffset" : 26992, "byteLength" : 108288, "byteStride" : 32, "target" : 34962}, {"buffer" : 0, "byteOffset" : 135284, "byteLength" : 58080, "byteStride" : 32, "target" : 34962}, {"buffer" : 0, "byteOffset" : 193368, "byteLength" : 23616, "byteStride" : 32, "target" : 34962}, {"buffer" : 0, "byteOffset" : 216988, "byteLength" : 15360, "byteStride" : 32, "target" : 34962}, {"buffer" : 0, "byteOffset" : 232352, "byteLength" : 113376, "byteStride" : 32, "target" : 34962}, {"buffer" : 0, "byteOffset" : 345732, "byteLength" : 78144, "byteStride" : 32, "target" : 34962}, {"buffer" : 0, "byteOffset" : 423880, "byteLength" : 30720, "byteStride" : 32, "target" : 34962}, {"buffer" : 0, "byteOffset" : 454604, "byteLength" : 4128, "byteStride" : 32, "target" : 34962}], "materials" : [{"name" : "stone", "pbrMetallicRoughness" : {"baseColorFactor" : [0.16513217985630035, 0.1441284865140915, 0.09530749171972275, 1], "metallicFactor" : 0, "roughnessFactor" : 1}, "emissiveFactor" : [0, 0, 0], "alphaMode" : "OPAQUE", "doubleSided" : true}, {"name" : "wood", "pbrMetallicRoughness" : {"baseColorFactor" : [0.13758325576782227, 0.07754862308502197, 0.04048343747854233, 1], "metallicFactor" : 0, "roughnessFactor" : 1}, "emissiveFactor" : [0, 0, 0], "alphaMode" : "OPAQUE", "doubleSided" : true}, {"name" : "dark", "pbrMetallicRoughness" : {"baseColorFactor" : [0.08001147210597992, 0.08001147210597992, 0.08001147210597992, 1], "metallicFactor" : 0, "roughnessFactor" : 1}, "emissiveFactor" : [0, 0, 0], "alphaMode" : "OPAQUE", "doubleSided" : true}, {"name" : "gold", "pbrMetallicRoughness" : {"baseColorFactor" : [0.25294259190559387, 0.13857918977737427, 0.0082520991563797, 1], "metallicFactor" : 0, "roughnessFactor" : 1}, "emissiveFactor" : [0, 0, 0], "alphaMode" : "OPAQUE", "doubleSided" : true}, {"name" : "red", "pbrMetallicRoughness" : {"baseColorFactor" : [0.18446850776672363, 0.04311834275722504, 0.03255989030003548, 1], "metallicFactor" : 0, "roughnessFactor" : 1}, "emissiveFactor" : [0, 0, 0], "alphaMode" : "OPAQUE", "doubleSided" : true}, {"name" : "white", "pbrMetallicRoughness" : {"baseColorFactor" : [0.4019680917263031, 0.5595975518226624, 0.5329543948173523, 1], "metallicFactor" : 0, "roughnessFactor" : 1}, "emissiveFactor" : [0, 0, 0], "alphaMode" : "OPAQUE", "doubleSided" : true}, {"name" : "blue", "pbrMetallicRoughness" : {"baseColorFactor" : [0.09530749171972275, 0.15896084904670715, 0.1499597728252411, 1], "metallicFactor" : 0, "roughnessFactor" : 1}, "emissiveFactor" : [0, 0, 0], "alphaMode" : "OPAQUE", "doubleSided" : true}, {"name" : "red2", "pbrMetallicRoughness" : {"baseColorFactor" : [0.14240051805973053, 0.009410541504621506, 0.017029641196131706, 1], "metallicFactor" : 0, "roughnessFactor" : 1}, "emissiveFactor" : [0, 0, 0], "alphaMode" : "OPAQUE", "doubleSided" : true}], "meshes" : [{"primitives" : [{"attributes" : {"POSITION" : 1, "NORMAL" : 2, "TEXCOORD_0" : 3}, "indices" : 0, "material" : 0, "mode" : 4}, {"attributes" : {"POSITION" : 5, "NORMAL" : 6, "TEXCOORD_0" : 7}, "indices" : 4, "material" : 1, "mode" : 4}, {"attributes" : {"POSITION" : 9, "NORMAL" : 10, "TEXCOORD_0" : 11}, "indices" : 8, "material" : 2, "mode" : 4}, {"attributes" : {"POSITION" : 13, "NORMAL" : 14, "TEXCOORD_0" : 15}, "indices" : 12, "material" : 3, "mode" : 4}, {"attributes" : {"POSITION" : 17, "NORMAL" : 18, "TEXCOORD_0" : 19}, "indices" : 16, "material" : 4, "mode" : 4}, {"attributes" : {"POSITION" : 21, "NORMAL" : 22, "TEXCOORD_0" : 23}, "indices" : 20, "material" : 5, "mode" : 4}, {"attributes" : {"POSITION" : 25, "NORMAL" : 26, "TEXCOORD_0" : 27}, "indices" : 24, "material" : 6, "mode" : 4}, {"attributes" : {"POSITION" : 29, "NORMAL" : 30, "TEXCOORD_0" : 31}, "indices" : 28, "material" : 7, "mode" : 4}]}], "nodes" : [{"matrix" : [2.0319182872772217, 0, 0, 0, 0, 0.16067838668823242, 0, 0, 0, 0, 2.0319182872772217, 0, 0, 0, 0, 1], "mesh" : 0, "name" : " botcher market"}], "scene" : 0, "scenes" : [{"nodes" : [0]}]}