{"accessors" : [{"bufferView" : 0, "byteOffset" : 0, "componentType" : 5123, "count" : 13278, "type" : "SCALAR", "max" : [11675], "min" : [0]}, {"bufferView" : 1, "byteOffset" : 0, "componentType" : 5126, "count" : 11676, "type" : "VEC3", "max" : [82.21602630615234, 45.08230972290039, 18.737163543701172], "min" : [-71.30744171142578, 0.21255870163440704, -16.454912185668945], "name" : "POSITION"}, {"bufferView" : 1, "byteOffset" : 12, "componentType" : 5126, "count" : 11676, "type" : "VEC3", "max" : [1.0000044107437134, 1.0000044107437134, 1.0000044107437134], "min" : [-1.0000044107437134, -1.0000044107437134, -1.0000044107437134], "name" : "NORMAL"}, {"bufferView" : 1, "byteOffset" : 24, "componentType" : 5126, "count" : 11676, "type" : "VEC2", "max" : [0.8750001192092896, 1], "min" : [0.1249999850988388, 0], "name" : "TEXCOORD_0"}, {"bufferView" : 0, "byteOffset" : 26556, "componentType" : 5123, "count" : 3969, "type" : "SCALAR", "max" : [3270], "min" : [0]}, {"bufferView" : 2, "byteOffset" : 0, "componentType" : 5126, "count" : 3271, "type" : "VEC3", "max" : [69.77549743652344, 41.89743423461914, 15.751240730285645], "min" : [-64.59212493896484, 0.21256251633167267, -14.816969871520996], "name" : "POSITION"}, {"bufferView" : 2, "byteOffset" : 12, "componentType" : 5126, "count" : 3271, "type" : "VEC3", "max" : [1.0000044107437134, 1.0000044107437134, 1.0000044107437134], "min" : [-1.0000044107437134, -1.0000044107437134, -1.0000044107437134], "name" : "NORMAL"}, {"bufferView" : 2, "byteOffset" : 24, "componentType" : 5126, "count" : 3271, "type" : "VEC2", "max" : [1, 1], "min" : [-1.564621925354004E-07, 0], "name" : "TEXCOORD_0"}, {"bufferView" : 0, "byteOffset" : 34496, "componentType" : 5123, "count" : 90, "type" : "SCALAR", "max" : [75], "min" : [0]}, {"bufferView" : 3, "byteOffset" : 0, "componentType" : 5126, "count" : 76, "type" : "VEC3", "max" : [59.36310958862305, 39.15272903442383, 13.668074607849121], "min" : [-51.12389373779297, 2.162364959716797, -11.74841022491455], "name" : "POSITION"}, {"bufferView" : 3, "byteOffset" : 12, "componentType" : 5126, "count" : 76, "type" : "VEC3", "max" : [1.0000044107437134, 1.49689853401469E-07, 1.0000044107437134], "min" : [0, 0, -2.5892179564834805E-06], "name" : "NORMAL"}, {"bufferView" : 3, "byteOffset" : 24, "componentType" : 5126, "count" : 76, "type" : "VEC2", "max" : [0.6228325366973877, 0.9925935864448547], "min" : [0.3808048963546753, 0.25192660093307495], "name" : "TEXCOORD_0"}, {"bufferView" : 0, "byteOffset" : 34676, "componentType" : 5123, "count" : 1998, "type" : "SCALAR", "max" : [1652], "min" : [0]}, {"bufferView" : 4, "byteOffset" : 0, "componentType" : 5126, "count" : 1653, "type" : "VEC3", "max" : [82.21602630615234, 39.556495666503906, 18.737163543701172], "min" : [-52.63581085205078, 1.4525127410888672, -12.152178764343262], "name" : "POSITION"}, {"bufferView" : 4, "byteOffset" : 12, "componentType" : 5126, "count" : 1653, "type" : "VEC3", "max" : [1.0000044107437134, 1.0000044107437134, 1.0000044107437134], "min" : [-1.0000044107437134, -1.0000044107437134, -1.0000044107437134], "name" : "NORMAL"}, {"bufferView" : 4, "byteOffset" : 24, "componentType" : 5126, "count" : 1653, "type" : "VEC2", "max" : [0.625, 1], "min" : [0.3749999701976776, 0.25], "name" : "TEXCOORD_0"}], "asset" : {"generator" : "Aspose.3D 23.4.0", "version" : "2.0"}, "buffers" : [{"uri" : "data:application/octet-stream;base64,", "byteLength" : 657412}], "bufferViews" : [{"buffer" : 0, "byteOffset" : 0, "byteLength" : 38672, "target" : 34963}, {"buffer" : 0, "byteOffset" : 38676, "byteLength" : 424896, "byteStride" : 32, "target" : 34962}, {"buffer" : 0, "byteOffset" : 463576, "byteLength" : 127008, "byteStride" : 32, "target" : 34962}, {"buffer" : 0, "byteOffset" : 590588, "byteLength" : 2880, "byteStride" : 32, "target" : 34962}, {"buffer" : 0, "byteOffset" : 593472, "byteLength" : 63936, "byteStride" : 32, "target" : 34962}], "materials" : [{"name" : "darkyellow", "pbrMetallicRoughness" : {"baseColorFactor" : [0.4868963658809662, 0.33643975853919983, 0.12149902433156967, 1], "metallicFactor" : 0, "roughnessFactor" : 1}, "emissiveFactor" : [0, 0, 0], "alphaMode" : "OPAQUE", "doubleSided" : true}, {"name" : "wall2", "pbrMetallicRoughness" : {"baseColorFactor" : [0.19598791003227234, 0.03051372803747654, 0.01421546284109354, 1], "metallicFactor" : 0, "roughnessFactor" : 1}, "emissiveFactor" : [0, 0, 0], "alphaMode" : "OPAQUE", "doubleSided" : true}, {"name" : "glass", "pbrMetallicRoughness" : {"baseColorFactor" : [0.11953846365213394, 0.19461780786514282, 0.18447501957416534, 1], "metallicFactor" : 0, "roughnessFactor" : 1}, "emissiveFactor" : [0, 0, 0], "alphaMode" : "OPAQUE", "doubleSided" : true}, {"name" : "white", "pbrMetallicRoughness" : {"baseColorFactor" : [0.6266618371009827, 0.6266618371009827, 0.6266618371009827, 1], "metallicFactor" : 0, "roughnessFactor" : 1}, "emissiveFactor" : [0, 0, 0], "alphaMode" : "OPAQUE", "doubleSided" : true}], "meshes" : [{"primitives" : [{"attributes" : {"POSITION" : 1, "NORMAL" : 2, "TEXCOORD_0" : 3}, "indices" : 0, "material" : 0, "mode" : 4}, {"attributes" : {"POSITION" : 5, "NORMAL" : 6, "TEXCOORD_0" : 7}, "indices" : 4, "material" : 1, "mode" : 4}, {"attributes" : {"POSITION" : 9, "NORMAL" : 10, "TEXCOORD_0" : 11}, "indices" : 8, "material" : 2, "mode" : 4}, {"attributes" : {"POSITION" : 13, "NORMAL" : 14, "TEXCOORD_0" : 15}, "indices" : 12, "material" : 3, "mode" : 4}]}], "nodes" : [{"matrix" : [0.042954221367836, 0, 0, 0, 0, 0.18768692016601562, 0, 0, 0, 0, 0.18768692016601562, 0, 0, 0, 0, 1], "mesh" : 0, "name" : "pizza shop"}], "scene" : 0, "scenes" : [{"nodes" : [0]}]}