{"accessors" : [{"bufferView" : 0, "byteOffset" : 0, "componentType" : 5123, "count" : 321, "type" : "SCALAR", "max" : [281], "min" : [0]}, {"bufferView" : 1, "byteOffset" : 0, "componentType" : 5126, "count" : 282, "type" : "VEC3", "max" : [9.723333358764648, 20.351329803466797, 4.875738143920898], "min" : [-9.125640869140625, -1.1141197681427002, -10.499774932861328], "name" : "POSITION"}, {"bufferView" : 1, "byteOffset" : 12, "componentType" : 5126, "count" : 282, "type" : "VEC3", "max" : [1.0000044107437134, 1.0000044107437134, 1.0000044107437134], "min" : [-1.0000044107437134, -1.0000044107437134, -1.0000044107437134], "name" : "NORMAL"}, {"bufferView" : 1, "byteOffset" : 24, "componentType" : 5126, "count" : 282, "type" : "VEC2", "max" : [0.33076047897338867, 0.46454954147338867], "min" : [0.06973376870155334, 0.13371407985687256], "name" : "TEXCOORD_0"}, {"bufferView" : 0, "byteOffset" : 644, "componentType" : 5123, "count" : 84, "type" : "SCALAR", "max" : [78], "min" : [0]}, {"bufferView" : 2, "byteOffset" : 0, "componentType" : 5126, "count" : 79, "type" : "VEC3", "max" : [8.256112098693848, 20.54509735107422, 1.2702605724334717], "min" : [-0.8746541738510132, -1, -7.899355888366699], "name" : "POSITION"}, {"bufferView" : 2, "byteOffset" : 12, "componentType" : 5126, "count" : 79, "type" : "VEC3", "max" : [0.8660292029380798, 1.0000044107437134, 0.9868249297142029], "min" : [-0.990783154964447, -1.0000044107437134, -0.6674954891204834], "name" : "NORMAL"}, {"bufferView" : 2, "byteOffset" : 24, "componentType" : 5126, "count" : 79, "type" : "VEC2", "max" : [1, 0.8700000047683716], "min" : [-5.960464477539063E-08, 0], "name" : "TEXCOORD_0"}], "asset" : {"generator" : "Aspose.3D 23.4.0", "version" : "2.0"}, "buffers" : [{"uri" : "data:application/octet-stream;base64,", "byteLength" : 13784}], "bufferViews" : [{"buffer" : 0, "byteOffset" : 0, "byteLength" : 812, "target" : 34963}, {"buffer" : 0, "byteOffset" : 816, "byteLength" : 10272, "byteStride" : 32, "target" : 34962}, {"buffer" : 0, "byteOffset" : 11092, "byteLength" : 2688, "byteStride" : 32, "target" : 34962}], "images" : [{"uri" : "data:image/png;base64,"}], "materials" : [{"name" : "Material.001", "pbrMetallicRoughness" : {"baseColorFactor" : [1, 1, 1, 1], "baseColorTexture" : {"index" : 0, "texCoord" : 0}, "metallicFactor" : 0, "roughnessFactor" : 0.5}, "emissiveFactor" : [0, 0, 0], "alphaMode" : "OPAQUE", "doubleSided" : true}], "meshes" : [{"primitives" : [{"attributes" : {"POSITION" : 1, "NORMAL" : 2, "TEXCOORD_0" : 3}, "indices" : 0, "material" : 0, "mode" : 4}]}, {"primitives" : [{"attributes" : {"POSITION" : 5, "NORMAL" : 6, "TEXCOORD_0" : 7}, "indices" : 4, "mode" : 4}]}], "nodes" : [{"matrix" : [0.2868252396583557, 0, 0, 0, 0, 0.2868252396583557, 0, 0, 0, 0, 0.2868252396583557, 0, -0.1139543354511261, 0.3850885331630707, 0, 1], "mesh" : 0, "name" : "tree"}, {"matrix" : [0.2868252396583557, 0, 0, 0, 0, 0.2868252396583557, 0, 0, 0, 0, 0.2868252396583557, 0, -0.7032779455184937, 0.32239803671836853, 0, 1], "mesh" : 1, "name" : "tree_collider"}], "samplers" : [{"magFilter" : 9729, "minFilter" : 9729, "wrapS" : 10497, "wrapT" : 10497}], "scene" : 0, "scenes" : [{"nodes" : [0, 1]}], "textures" : [{"sampler" : 0, "source" : 0, "name" : ""}]}