{"accessors" : [{"bufferView" : 0, "byteOffset" : 0, "componentType" : 5123, "count" : 288, "type" : "SCALAR", "max" : [255], "min" : [0]}, {"bufferView" : 1, "byteOffset" : 0, "componentType" : 5126, "count" : 256, "type" : "VEC3", "max" : [1.9006562232971191, 0.6260747313499451, 0.8050104379653931], "min" : [-1.3133423328399658, 0.2088288813829422, -2.378164768218994], "name" : "POSITION"}, {"bufferView" : 1, "byteOffset" : 12, "componentType" : 5126, "count" : 256, "type" : "VEC3", "max" : [0.9018341898918152, 0.9953706860542297, 0.8271255493164062], "min" : [-0.7861743569374084, 0.12763509154319763, -0.8076599836349487], "name" : "NORMAL"}, {"bufferView" : 1, "byteOffset" : 24, "componentType" : 5126, "count" : 256, "type" : "VEC2", "max" : [0.9854369163513184, 0.9854369163513184], "min" : [0.014563106931746006, 0.01456308364868164], "name" : "TEXCOORD_0"}], "asset" : {"generator" : "Aspose.3D 23.4.0", "version" : "2.0"}, "buffers" : [{"uri" : "data:application/octet-stream;base64,", "byteLength" : 9800}], "bufferViews" : [{"buffer" : 0, "byteOffset" : 0, "byteLength" : 576, "target" : 34963}, {"buffer" : 0, "byteOffset" : 580, "byteLength" : 9216, "byteStride" : 32, "target" : 34962}], "images" : [{"uri" : "data:image/png;base64,"}], "materials" : [{"name" : "Material.001", "pbrMetallicRoughness" : {"baseColorFactor" : [1, 1, 1, 1], "baseColorTexture" : {"index" : 0, "texCoord" : 0}, "metallicFactor" : 0, "roughnessFactor" : 0.7018181681632996}, "emissiveFactor" : [0, 0, 0], "alphaMode" : "OPAQUE", "doubleSided" : true}], "meshes" : [{"primitives" : [{"attributes" : {"POSITION" : 1, "NORMAL" : 2, "TEXCOORD_0" : 3}, "indices" : 0, "material" : 0, "mode" : 4}]}], "nodes" : [{"matrix" : [1, 0, 0, 0, 0, 1, 0, 0, 0, 0, 1, 0, -0.23343122005462646, -0.1292312741279602, 0.8198560476303101, 1], "mesh" : 0, "name" : "Plane"}], "samplers" : [{"magFilter" : 9729, "minFilter" : 9729, "wrapS" : 10497, "wrapT" : 10497}], "scene" : 0, "scenes" : [{"nodes" : [0]}], "textures" : [{"sampler" : 0, "source" : 0, "name" : ""}]}