{"accessors" : [{"bufferView" : 0, "byteOffset" : 0, "componentType" : 5123, "count" : 1653, "type" : "SCALAR", "max" : [1477], "min" : [0]}, {"bufferView" : 1, "byteOffset" : 0, "componentType" : 5126, "count" : 1478, "type" : "VEC3", "max" : [1.0943952798843384, 1.6024081707000732, 2.950153350830078], "min" : [-1.0943952798843384, 0.29844725131988525, -2.331873655319214], "name" : "POSITION"}, {"bufferView" : 1, "byteOffset" : 12, "componentType" : 5126, "count" : 1478, "type" : "VEC3", "max" : [1.0000044107437134, 1.0000044107437134, 0.9995480179786682], "min" : [-1.0000044107437134, -0.9999435544013977, -0.9996841549873352], "name" : "NORMAL"}, {"bufferView" : 1, "byteOffset" : 24, "componentType" : 5126, "count" : 1478, "type" : "VEC2", "max" : [0.8652560710906982, 0.98828125], "min" : [0.125, 0.17059171199798584], "name" : "TEXCOORD_0"}, {"bufferView" : 0, "byteOffset" : 3308, "componentType" : 5123, "count" : 3432, "type" : "SCALAR", "max" : [3044], "min" : [0]}, {"bufferView" : 2, "byteOffset" : 0, "componentType" : 5126, "count" : 3045, "type" : "VEC3", "max" : [1.1226359605789185, 1.6088709831237793, 2.932213544845581], "min" : [-1.1226359605789185, -0.008619427680969238, -2.665093421936035], "name" : "POSITION"}, {"bufferView" : 2, "byteOffset" : 12, "componentType" : 5126, "count" : 3045, "type" : "VEC3", "max" : [1.0000044107437134, 1.0000044107437134, 0.9988188743591309], "min" : [-0.9998727440834045, -1.0000044107437134, -1.0000044107437134], "name" : "NORMAL"}, {"bufferView" : 2, "byteOffset" : 24, "componentType" : 5126, "count" : 3045, "type" : "VEC2", "max" : [1, 0.9808239936828613], "min" : [0, 0], "name" : "TEXCOORD_0"}, {"bufferView" : 0, "byteOffset" : 10172, "componentType" : 5123, "count" : 7203, "type" : "SCALAR", "max" : [6482], "min" : [0]}, {"bufferView" : 3, "byteOffset" : 0, "componentType" : 5126, "count" : 6483, "type" : "VEC3", "max" : [1.1018993854522705, 2.0090932846069336, 2.9439053535461426], "min" : [-1.1017837524414062, 0.20026028156280518, -2.7616145610809326], "name" : "POSITION"}, {"bufferView" : 3, "byteOffset" : 12, "componentType" : 5126, "count" : 6483, "type" : "VEC3", "max" : [1.0000044107437134, 1.0000044107437134, 1.0000042915344238], "min" : [-1.0000044107437134, -1.0000044107437134, -1.0000044107437134], "name" : "NORMAL"}, {"bufferView" : 3, "byteOffset" : 24, "componentType" : 5126, "count" : 6483, "type" : "VEC2", "max" : [1, 1], "min" : [-1.862645149230957E-07, 0], "name" : "TEXCOORD_0"}, {"bufferView" : 0, "byteOffset" : 24580, "componentType" : 5123, "count" : 60, "type" : "SCALAR", "max" : [51], "min" : [0]}, {"bufferView" : 4, "byteOffset" : 0, "componentType" : 5126, "count" : 52, "type" : "VEC3", "max" : [0.7759786248207092, 1.9767701625823975, 0.4318396747112274], "min" : [-0.7770422697067261, 1.4816880226135254, 0.27320438623428345], "name" : "POSITION"}, {"bufferView" : 4, "byteOffset" : 12, "componentType" : 5126, "count" : 52, "type" : "VEC3", "max" : [0.3135741949081421, 0.310455858707428, 0.9565887451171875], "min" : [-0.2665325701236725, -0.30960872769355774, -0.9571070075035095], "name" : "NORMAL"}, {"bufferView" : 4, "byteOffset" : 24, "componentType" : 5126, "count" : 52, "type" : "VEC2", "max" : [0.75, 0.3789316415786743], "min" : [0.6144753694534302, 0.3693423271179199], "name" : "TEXCOORD_0"}, {"bufferView" : 0, "byteOffset" : 24700, "componentType" : 5123, "count" : 342, "type" : "SCALAR", "max" : [320], "min" : [0]}, {"bufferView" : 5, "byteOffset" : 0, "componentType" : 5126, "count" : 321, "type" : "VEC3", "max" : [0.8777167797088623, 1.5080581903457642, 2.401211977005005], "min" : [-0.8591580986976624, 0.667279064655304, -0.0711154043674469], "name" : "POSITION"}, {"bufferView" : 5, "byteOffset" : 12, "componentType" : 5126, "count" : 321, "type" : "VEC3", "max" : [0.9998596906661987, 1.0000044107437134, 0.9979010820388794], "min" : [-0.9959448575973511, -1.0000044107437134, -0.997911274433136], "name" : "NORMAL"}, {"bufferView" : 5, "byteOffset" : 24, "componentType" : 5126, "count" : 321, "type" : "VEC2", "max" : [0.75, 0.3750000596046448], "min" : [0.6249998807907104, 0.24999988079071045], "name" : "TEXCOORD_0"}, {"bufferView" : 0, "byteOffset" : 25384, "componentType" : 5123, "count" : 153, "type" : "SCALAR", "max" : [144], "min" : [0]}, {"bufferView" : 6, "byteOffset" : 0, "componentType" : 5126, "count" : 145, "type" : "VEC3", "max" : [0.49259623885154724, 1.2601025104522705, -2.263183116912842], "min" : [-0.4921026825904846, 1.192056655883789, -2.3151438236236572], "name" : "POSITION"}, {"bufferView" : 6, "byteOffset" : 12, "componentType" : 5126, "count" : 145, "type" : "VEC3", "max" : [0.9984645247459412, 0.9739019870758057, 0.02525016851723194], "min" : [-0.998447060585022, -0.972415566444397, -0.9995502233505249], "name" : "NORMAL"}, {"bufferView" : 6, "byteOffset" : 24, "componentType" : 5126, "count" : 145, "type" : "VEC2", "max" : [0.9713220596313477, 0.9675633311271667], "min" : [0.541704535484314, 0.5344962477684021], "name" : "TEXCOORD_0"}, {"bufferView" : 0, "byteOffset" : 25692, "componentType" : 5123, "count" : 624, "type" : "SCALAR", "max" : [567], "min" : [0]}, {"bufferView" : 7, "byteOffset" : 0, "componentType" : 5126, "count" : 568, "type" : "VEC3", "max" : [0.7826536893844604, 1.493492603302002, 1.1971355676651], "min" : [-0.7825428247451782, 0.6605122089385986, 0.4054415225982666], "name" : "POSITION"}, {"bufferView" : 7, "byteOffset" : 12, "componentType" : 5126, "count" : 568, "type" : "VEC3", "max" : [0.9995711445808411, 0.9979488253593445, 1.0000042915344238], "min" : [-0.9995551109313965, -0.962798535823822, -1.0000044107437134], "name" : "NORMAL"}, {"bufferView" : 7, "byteOffset" : 24, "componentType" : 5126, "count" : 568, "type" : "VEC2", "max" : [0.6875097751617432, 0.3626425266265869], "min" : [0.6875096559524536, 0.3342735767364502], "name" : "TEXCOORD_0"}], "asset" : {"generator" : "Aspose.3D 23.4.0", "version" : "2.0"}, "buffers" : [{"uri" : "data:application/octet-stream;base64,", "byteLength" : 457916}], "bufferViews" : [{"buffer" : 0, "byteOffset" : 0, "byteLength" : 26940, "target" : 34963}, {"buffer" : 0, "byteOffset" : 26944, "byteLength" : 52896, "byteStride" : 32, "target" : 34962}, {"buffer" : 0, "byteOffset" : 79844, "byteLength" : 109824, "byteStride" : 32, "target" : 34962}, {"buffer" : 0, "byteOffset" : 189672, "byteLength" : 230496, "byteStride" : 32, "target" : 34962}, {"buffer" : 0, "byteOffset" : 420172, "byteLength" : 1920, "byteStride" : 32, "target" : 34962}, {"buffer" : 0, "byteOffset" : 422096, "byteLength" : 10944, "byteStride" : 32, "target" : 34962}, {"buffer" : 0, "byteOffset" : 433044, "byteLength" : 4896, "byteStride" : 32, "target" : 34962}, {"buffer" : 0, "byteOffset" : 437944, "byteLength" : 19968, "byteStride" : 32, "target" : 34962}], "materials" : [{"name" : "red", "pbrMetallicRoughness" : {"baseColorFactor" : [0.23955217003822327, 0.023901132866740227, 0.020589342340826988, 1], "metallicFactor" : 0, "roughnessFactor" : 1}, "emissiveFactor" : [0, 0, 0], "alphaMode" : "OPAQUE", "doubleSided" : true}, {"name" : "dark", "pbrMetallicRoughness" : {"baseColorFactor" : [0, 0, 0, 1], "metallicFactor" : 0, "roughnessFactor" : 1}, "emissiveFactor" : [0, 0, 0], "alphaMode" : "OPAQUE", "doubleSided" : true}, {"name" : "gray", "pbrMetallicRoughness" : {"baseColorFactor" : [0.30319738388061523, 0.30319738388061523, 0.30319738388061523, 1], "metallicFactor" : 0, "roughnessFactor" : 1}, "emissiveFactor" : [0, 0, 0], "alphaMode" : "OPAQUE", "doubleSided" : true}, {"name" : "glass", "pbrMetallicRoughness" : {"baseColorFactor" : [0.09199411422014236, 0.29305386543273926, 0.4109381437301636, 1], "metallicFactor" : 0, "roughnessFactor" : 1}, "emissiveFactor" : [0, 0, 0], "alphaMode" : "OPAQUE", "doubleSided" : true}, {"name" : "interior ", "pbrMetallicRoughness" : {"baseColorFactor" : [0.4868963658809662, 0.33180880546569824, 0.149130716919899, 1], "metallicFactor" : 0, "roughnessFactor" : 1}, "emissiveFactor" : [0, 0, 0], "alphaMode" : "OPAQUE", "doubleSided" : true}, {"name" : "yellow", "pbrMetallicRoughness" : {"baseColorFactor" : [0.25979745388031006, 0.17806977033615112, 0.031930167227983475, 1], "metallicFactor" : 0, "roughnessFactor" : 1}, "emissiveFactor" : [0, 0, 0], "alphaMode" : "OPAQUE", "doubleSided" : true}, {"name" : "interior2", "pbrMetallicRoughness" : {"baseColorFactor" : [0.24619466066360474, 0.1959886997938156, 0.1149364709854126, 1], "metallicFactor" : 0, "roughnessFactor" : 1}, "emissiveFactor" : [0, 0, 0], "alphaMode" : "OPAQUE", "doubleSided" : true}], "meshes" : [{"primitives" : [{"attributes" : {"POSITION" : 1, "NORMAL" : 2, "TEXCOORD_0" : 3}, "indices" : 0, "material" : 0, "mode" : 4}, {"attributes" : {"POSITION" : 5, "NORMAL" : 6, "TEXCOORD_0" : 7}, "indices" : 4, "material" : 1, "mode" : 4}, {"attributes" : {"POSITION" : 9, "NORMAL" : 10, "TEXCOORD_0" : 11}, "indices" : 8, "material" : 2, "mode" : 4}, {"attributes" : {"POSITION" : 13, "NORMAL" : 14, "TEXCOORD_0" : 15}, "indices" : 12, "material" : 3, "mode" : 4}, {"attributes" : {"POSITION" : 17, "NORMAL" : 18, "TEXCOORD_0" : 19}, "indices" : 16, "material" : 4, "mode" : 4}, {"attributes" : {"POSITION" : 21, "NORMAL" : 22, "TEXCOORD_0" : 23}, "indices" : 20, "material" : 5, "mode" : 4}, {"attributes" : {"POSITION" : 25, "NORMAL" : 26, "TEXCOORD_0" : 27}, "indices" : 24, "material" : 6, "mode" : 4}]}], "nodes" : [{"matrix" : [-1.3116287547554697E-07, 0, 0.9762132287352021, 0, 0, 1, 0, 0, -1.0000001343588565, 0, -1.3435885648505064E-07, 0, 0, 0, 0, 1], "mesh" : 0, "name" : "HRG Sports car 1948"}], "scene" : 0, "scenes" : [{"nodes" : [0]}]}