{"accessors" : [{"bufferView" : 0, "byteOffset" : 0, "componentType" : 5123, "count" : 4320, "type" : "SCALAR", "max" : [3554], "min" : [0]}, {"bufferView" : 1, "byteOffset" : 0, "componentType" : 5126, "count" : 3555, "type" : "VEC3", "max" : [1.0383317470550537, 1.1436244249343872, 1.1622658967971802], "min" : [-1.0382304191589355, -1.1357461214065552, -1.1452441215515137], "name" : "POSITION"}, {"bufferView" : 1, "byteOffset" : 12, "componentType" : 5126, "count" : 3555, "type" : "VEC3", "max" : [1.0000044107437134, 1.0000044107437134, 0.999683678150177], "min" : [-1.0000044107437134, -0.9996553063392639, -0.999625563621521], "name" : "NORMAL"}, {"bufferView" : 1, "byteOffset" : 24, "componentType" : 5126, "count" : 3555, "type" : "VEC2", "max" : [0.875, 1], "min" : [0.125, 0], "name" : "TEXCOORD_0"}, {"bufferView" : 0, "byteOffset" : 8640, "componentType" : 5123, "count" : 270, "type" : "SCALAR", "max" : [224], "min" : [0]}, {"bufferView" : 2, "byteOffset" : 0, "componentType" : 5126, "count" : 225, "type" : "VEC3", "max" : [1.061442255973816, 1.0914102792739868, 1.0725791454315186], "min" : [-1.0613409280776978, -0.9855230450630188, -1.1681512594223022], "name" : "POSITION"}, {"bufferView" : 2, "byteOffset" : 12, "componentType" : 5126, "count" : 225, "type" : "VEC3", "max" : [1.0000044107437134, 1.0000042915344238, 1.0000044107437134], "min" : [-1.0000044107437134, -1.0000042915344238, -0.9935168623924255], "name" : "NORMAL"}, {"bufferView" : 2, "byteOffset" : 24, "componentType" : 5126, "count" : 225, "type" : "VEC2", "max" : [0.875, 0.9154166579246521], "min" : [0.3749999701976776, 0.0845833420753479], "name" : "TEXCOORD_0"}, {"bufferView" : 0, "byteOffset" : 9180, "componentType" : 5123, "count" : 270, "type" : "SCALAR", "max" : [224], "min" : [0]}, {"bufferView" : 3, "byteOffset" : 0, "componentType" : 5126, "count" : 225, "type" : "VEC3", "max" : [1.059056043624878, 1.1622390747070312, 1.0984742641448975], "min" : [-1.0589547157287598, -1.070053219795227, -1.0762152671813965], "name" : "POSITION"}, {"bufferView" : 3, "byteOffset" : 12, "componentType" : 5126, "count" : 225, "type" : "VEC3", "max" : [1.0000044107437134, 1.0000044107437134, 1.0000044107437134], "min" : [-1.0000044107437134, -1.0000044107437134, -1.0000044107437134], "name" : "NORMAL"}, {"bufferView" : 3, "byteOffset" : 24, "componentType" : 5126, "count" : 225, "type" : "VEC2", "max" : [0.875, 1], "min" : [0.2095833271741867, 0.0845833420753479], "name" : "TEXCOORD_0"}, {"bufferView" : 0, "byteOffset" : 9720, "componentType" : 5123, "count" : 270, "type" : "SCALAR", "max" : [224], "min" : [0]}, {"bufferView" : 4, "byteOffset" : 0, "componentType" : 5126, "count" : 225, "type" : "VEC3", "max" : [1.061902403831482, 1.0660141706466675, 1.1599373817443848], "min" : [-0.9738727807998657, -1.0835931301116943, -1.0791313648223877], "name" : "POSITION"}, {"bufferView" : 4, "byteOffset" : 12, "componentType" : 5126, "count" : 225, "type" : "VEC3", "max" : [1.0000044107437134, 1.0000044107437134, 1.0000044107437134], "min" : [-1.0000044107437134, -1.0000044107437134, -1.0000044107437134], "name" : "NORMAL"}, {"bufferView" : 4, "byteOffset" : 24, "componentType" : 5126, "count" : 225, "type" : "VEC2", "max" : [0.875, 1], "min" : [0.3749999701976776, 0], "name" : "TEXCOORD_0"}, {"bufferView" : 0, "byteOffset" : 10260, "componentType" : 5123, "count" : 270, "type" : "SCALAR", "max" : [224], "min" : [0]}, {"bufferView" : 5, "byteOffset" : 0, "componentType" : 5126, "count" : 225, "type" : "VEC3", "max" : [1.059799313545227, 1.0798327922821045, 0.9957032799720764], "min" : [-1.0596979856491089, -1.1492226123809814, -1.1614837646484375], "name" : "POSITION"}, {"bufferView" : 5, "byteOffset" : 12, "componentType" : 5126, "count" : 225, "type" : "VEC3", "max" : [1.0000044107437134, 1.0000044107437134, 0.993516743183136], "min" : [-1.0000044107437134, -1.0000044107437134, -1.0000044107437134], "name" : "NORMAL"}, {"bufferView" : 5, "byteOffset" : 24, "componentType" : 5126, "count" : 225, "type" : "VEC2", "max" : [0.875, 0.9154166579246521], "min" : [0.125, 0.25], "name" : "TEXCOORD_0"}, {"bufferView" : 0, "byteOffset" : 10800, "componentType" : 5123, "count" : 246, "type" : "SCALAR", "max" : [204], "min" : [0]}, {"bufferView" : 6, "byteOffset" : 0, "componentType" : 5126, "count" : 205, "type" : "VEC3", "max" : [1.0560272932052612, 1.0376955270767212, 1.1798057556152344], "min" : [-1.055925965309143, -1.071954607963562, -1.0855467319488525], "name" : "POSITION"}, {"bufferView" : 6, "byteOffset" : 12, "componentType" : 5126, "count" : 205, "type" : "VEC3", "max" : [1.0000044107437134, 1.0000044107437134, 1.0000044107437134], "min" : [-1.0000044107437134, -1.0000044107437134, -1.0000044107437134], "name" : "NORMAL"}, {"bufferView" : 6, "byteOffset" : 24, "componentType" : 5126, "count" : 205, "type" : "VEC2", "max" : [0.875, 1], "min" : [0.2095833271741867, 0], "name" : "TEXCOORD_0"}, {"bufferView" : 0, "byteOffset" : 11292, "componentType" : 5123, "count" : 270, "type" : "SCALAR", "max" : [224], "min" : [0]}, {"bufferView" : 7, "byteOffset" : 0, "componentType" : 5126, "count" : 225, "type" : "VEC3", "max" : [0.9739739894866943, 1.0726789236068726, 1.0822319984436035], "min" : [-1.0587513446807861, -1.1560865640640259, -1.0926874876022339], "name" : "POSITION"}, {"bufferView" : 7, "byteOffset" : 12, "componentType" : 5126, "count" : 225, "type" : "VEC3", "max" : [1.0000044107437134, 1.0000042915344238, 1.0000044107437134], "min" : [-1.0000044107437134, -0.9935168027877808, -1.0000044107437134], "name" : "NORMAL"}, {"bufferView" : 7, "byteOffset" : 24, "componentType" : 5126, "count" : 225, "type" : "VEC2", "max" : [0.875, 1], "min" : [0.125, 0], "name" : "TEXCOORD_0"}], "asset" : {"generator" : "Aspose.3D 23.4.0", "version" : "2.0"}, "buffers" : [{"uri" : "data:application/octet-stream;base64,", "byteLength" : 201176}], "bufferViews" : [{"buffer" : 0, "byteOffset" : 0, "byteLength" : 11832, "target" : 34963}, {"buffer" : 0, "byteOffset" : 11836, "byteLength" : 138240, "byteStride" : 32, "target" : 34962}, {"buffer" : 0, "byteOffset" : 150080, "byteLength" : 8640, "byteStride" : 32, "target" : 34962}, {"buffer" : 0, "byteOffset" : 158724, "byteLength" : 8640, "byteStride" : 32, "target" : 34962}, {"buffer" : 0, "byteOffset" : 167368, "byteLength" : 8640, "byteStride" : 32, "target" : 34962}, {"buffer" : 0, "byteOffset" : 176012, "byteLength" : 8640, "byteStride" : 32, "target" : 34962}, {"buffer" : 0, "byteOffset" : 184656, "byteLength" : 7872, "byteStride" : 32, "target" : 34962}, {"buffer" : 0, "byteOffset" : 192532, "byteLength" : 8640, "byteStride" : 32, "target" : 34962}], "materials" : [{"name" : "black", "pbrMetallicRoughness" : {"baseColorFactor" : [0.014669571071863174, 0.014669571071863174, 0.014669571071863174, 1], "metallicFactor" : 0, "roughnessFactor" : 0}, "emissiveFactor" : [0, 0, 0], "alphaMode" : "OPAQUE", "doubleSided" : true}, {"name" : "red", "pbrMetallicRoughness" : {"baseColorFactor" : [0.8000000715255737, 0.0037210402078926563, 0.007479232270270586, 1], "metallicFactor" : 0, "roughnessFactor" : 0}, "emissiveFactor" : [0.03533788025379181, 0.002465789904817939, 0.0055303918197751045], "alphaMode" : "OPAQUE", "doubleSided" : true}, {"name" : "white", "pbrMetallicRoughness" : {"baseColorFactor" : [0.800000011920929, 0.800000011920929, 0.800000011920929, 1], "metallicFactor" : 0, "roughnessFactor" : 0}, "emissiveFactor" : [0, 0, 0], "alphaMode" : "OPAQUE", "doubleSided" : true}, {"name" : "green", "pbrMetallicRoughness" : {"baseColorFactor" : [0.02277168445289135, 0.334323912858963, 0.007208704482764006, 1], "metallicFactor" : 0, "roughnessFactor" : 0}, "emissiveFactor" : [0, 0, 0], "alphaMode" : "OPAQUE", "doubleSided" : true}, {"name" : "blue", "pbrMetallicRoughness" : {"baseColorFactor" : [0.0662090927362442, 0.08211851865053177, 0.4292261004447937, 1], "metallicFactor" : 0, "roughnessFactor" : 0}, "emissiveFactor" : [0, 0, 0], "alphaMode" : "OPAQUE", "doubleSided" : true}, {"name" : "orange", "pbrMetallicRoughness" : {"baseColorFactor" : [0.8000000715255737, 0.13167613744735718, 0.00694647990167141, 1], "metallicFactor" : 0, "roughnessFactor" : 0}, "emissiveFactor" : [0, 0, 0], "alphaMode" : "OPAQUE", "doubleSided" : true}, {"name" : "yellow", "pbrMetallicRoughness" : {"baseColorFactor" : [0.8000000715255737, 0.5222769975662231, 0.007771848700940609, 1], "metallicFactor" : 0, "roughnessFactor" : 0}, "emissiveFactor" : [0, 0, 0], "alphaMode" : "OPAQUE", "doubleSided" : true}], "meshes" : [{"primitives" : [{"attributes" : {"POSITION" : 1, "NORMAL" : 2, "TEXCOORD_0" : 3}, "indices" : 0, "material" : 0, "mode" : 4}, {"attributes" : {"POSITION" : 5, "NORMAL" : 6, "TEXCOORD_0" : 7}, "indices" : 4, "material" : 1, "mode" : 4}, {"attributes" : {"POSITION" : 9, "NORMAL" : 10, "TEXCOORD_0" : 11}, "indices" : 8, "material" : 2, "mode" : 4}, {"attributes" : {"POSITION" : 13, "NORMAL" : 14, "TEXCOORD_0" : 15}, "indices" : 12, "material" : 3, "mode" : 4}, {"attributes" : {"POSITION" : 17, "NORMAL" : 18, "TEXCOORD_0" : 19}, "indices" : 16, "material" : 4, "mode" : 4}, {"attributes" : {"POSITION" : 21, "NORMAL" : 22, "TEXCOORD_0" : 23}, "indices" : 20, "material" : 5, "mode" : 4}, {"attributes" : {"POSITION" : 25, "NORMAL" : 26, "TEXCOORD_0" : 27}, "indices" : 24, "material" : 6, "mode" : 4}]}], "nodes" : [{"matrix" : [0.9529523560241056, 0, -0.3031201287110896, 0, 0, 1, 0, 0, 0.3031201287110896, 0, 0.9529523560241056, 0, 0, 1.6204655170440674, 0, 1], "mesh" : 0, "name" : "Cube"}], "scene" : 0, "scenes" : [{"nodes" : [0]}]}